<?xml version="1.0" encoding="UTF-8" standalone="no"?><!DOCTYPE svg PUBLIC "-//W3C//DTD SVG 1.1//EN" "http://www.w3.org/Graphics/SVG/1.1/DTD/svg11.dtd"><svg width="100%" height="100%" viewBox="0 0 668 760" version="1.1" xmlns="http://www.w3.org/2000/svg" xmlns:xlink="http://www.w3.org/1999/xlink" xml:space="preserve" xmlns:serif="http://www.serif.com/" style="fill-rule:evenodd;clip-rule:evenodd;stroke-linejoin:round;stroke-miterlimit:2;"><rect id="Plan-de-travail1" serif:id="Plan de travail1" x="0" y="0" width="667.656" height="759.679" style="fill:none;"/><path d="M262.553,53.947l0,-13.129l1.903,-10.453l4.876,-8.521l5.792,-5.206l9.101,-5.626l9.317,-2.831l9.115,-2.023l6.269,-0.989l6.722,-0.959l9.814,-0.98l8.578,-0.279l20.971,1.396l20.032,3.903l14.628,6.181l9.453,7.866l5.065,10.958l1.137,11.92l0.375,8.619l12.023,3.398l43.106,15.976l46.312,24.903l26.803,19.053l27.019,24.734l24.207,27.755l25.262,35.849l6.751,11.671l9.656,16.654l9.303,18.58l4.436,9.543l5.593,5.236l7.978,10.243l7.634,18.513l2.42,25.62l-0,40.227l-0.342,17.571l-0.923,23.045l-3.363,34.8l-4.295,33.698l-8.33,41.9l-11.517,39.477l-15.478,37.167l-19.567,33.092l-22.532,29.791l-24.328,23.347l-23.431,19.605l-2.735,1.68l-0.012,0.089l-2.357,9.412l-4.979,10.397l-8.891,9.345l-7.469,4.196l-0.044,0.019l0,1.984l-4.287,10.702l-9.641,8.024l-12.012,1.999l-16.726,0.946l-22.157,1.212l-27.41,0.608l-51.596,0l-17.263,-0.297l-16.51,0.3l-16.183,-0.299l-14.728,0.3l-13.653,-0.303l-29.881,-0l-23.881,-0.604l-25.188,-0.606l-15.915,-1.015l-14.337,-3.904l-7.284,-13.74l-0.283,-5.079l-1.325,-0.628l-7.024,-4.676l-6.545,-5.53l-5.029,-8.675l-3.159,-7.21l-1.262,-7.14l-6.171,-4.703l-11.793,-8.678l-12.551,-10.926l-9.405,-9.392l-8.7,-9.887l-6.74,-6.731l-7.571,-10.189l-9.547,-12.918l-9.322,-14.123l-6.048,-11.445l-6.528,-12.415l-5.977,-13.347l-5.351,-12.888l-5.63,-16.241l-5.31,-17.156l-5.603,-23.004l-3.71,-19.755l-3.073,-19.026l-2.141,-17.109l-2.44,-21.015l-1.246,-15.861l-0.607,-16.064l-0.908,-16.94l-0.307,-19.276l0,-42.925l2.1,-18.172l5.093,-14.085l8.414,-12.823l6.704,-6.695l1.439,-1.867l5.783,-12.101l13.826,-25.465l12.7,-21.344l14.896,-21.693l16.262,-21.237l15.5,-16.742l13.175,-12.53l17.586,-15.367l19.039,-13.626l16.843,-10.278l14.795,-8.488l17.34,-8.186l15.808,-6.63l10.139,-3.407l13.009,-4.95l13.795,-3.757l4.654,-1.345Zm71.232,-35.98l-7.332,0.239l-9,0.899l-6.3,0.899l-5.7,0.898l-8.1,1.798l-6.9,2.097l-6.3,3.894l-3,2.697l-2.4,4.194l-1.2,6.591l0,23.068l-4.2,1.198l-11.4,3.296l-13.2,3.595l-12.6,4.793l-9.9,3.327l-15,6.292l-16.5,7.789l-14.1,8.089l-16.2,9.886l-18,12.882l-16.8,14.68l-12.6,11.983l-14.7,15.878l-15.6,20.372l-14.4,20.971l-12.3,20.672l-13.5,24.865l-6.3,13.182l-3,3.895l-6.3,6.291l-6.6,10.058l-3.9,10.785l-1.8,15.579l0,41.942l0.3,18.874l0.9,16.776l0.6,15.879l1.2,15.278l2.4,20.672l2.1,16.777l3,18.574l3.6,19.173l5.4,22.17l5.1,16.477l5.4,15.578l5.1,12.283l5.7,12.728l6.3,11.983l5.7,10.785l8.7,13.182l9.3,12.582l6.9,9.288l6.3,6.291l8.7,9.886l8.7,8.688l11.7,10.186l11.4,8.388l11.4,8.688l0.6,5.693l0.9,5.093l2.1,4.793l3.3,5.692l3.9,3.295l5.4,3.595l5.7,2.697l2.7,1.198l0.6,10.785l2.7,5.093l6.6,1.798l14.1,0.898l24.9,0.6l23.7,0.599l29.858,-0l13.5,0.299l14.7,-0.299l16.2,0.299l16.5,-0.299l17.4,0.299l51.3,0l27,-0.599l21.9,-1.198l15.9,-0.899l7.2,-1.198l3.6,-2.996l1.8,-4.494l0,-8.987l8.4,-3.596l4.8,-2.696l5.7,-5.991l3.3,-6.891l1.8,-7.19l0.9,-6.291l7.8,-4.794l22.2,-18.574l23.1,-22.169l21.3,-28.161l18.6,-31.457l14.756,-35.433l11.1,-38.048l8.1,-40.743l4.2,-32.955l3.3,-34.152l0.9,-22.469l0.337,-17.271l-0,-39.374l-2.143,-22.683l-6,-14.551l-6,-7.704l-6.857,-6.419l-5.571,-11.984l-9,-17.975l-9.429,-16.263l-6.419,-11.096l-24.428,-34.667l-23.143,-26.534l-25.715,-23.539l-25.285,-17.975l-44.572,-23.967l-41.571,-15.408l-22.714,-6.419l0.428,-8.988l-0.428,-9.843l-0.858,-8.988l-2.571,-5.564l-5.143,-4.279l-11.143,-4.708l-17.571,-3.424l-19.286,-1.284Z" style="fill:#006944;"/></svg>