<?xml version="1.0" encoding="UTF-8" standalone="no"?><!DOCTYPE svg PUBLIC "-//W3C//DTD SVG 1.1//EN" "http://www.w3.org/Graphics/SVG/1.1/DTD/svg11.dtd"><svg width="100%" height="100%" viewBox="0 0 501 407" version="1.1" xmlns="http://www.w3.org/2000/svg" xmlns:xlink="http://www.w3.org/1999/xlink" xml:space="preserve" xmlns:serif="http://www.serif.com/" style="fill-rule:evenodd;clip-rule:evenodd;stroke-linecap:round;stroke-linejoin:round;stroke-miterlimit:1.5;"><g><g><path d="M77.038,313.634l-5.113,-41.846l-5.113,-42.653l-10.764,-93.611l-7.939,-68.442l-1.884,-10.63l-4.036,-5.92l-4.441,-4.036l-8.342,-3.903" style="fill:#1d5b35;stroke:#006944;stroke-width:1px;"/><path d="M29.16,42.615l-9.957,-0l-5.517,-1.346l-4.709,-2.825l-4.441,-4.844l-2.691,-4.71l-1.345,-6.189l0.403,-4.979l1.211,-5.247l2.961,-4.037l3.767,-3.767l3.767,-2.691l3.095,-1.077l5.248,-0.134l7.266,-0.269l7.669,-0l5.517,0.941l10.226,3.364l6.458,2.96l13.725,10.63l9.419,11.572l6.593,14.935l2.018,7.67l1.48,6.727l0.673,4.441l340.862,-0l14.521,0.693l19.645,7.4l15.07,11.034l12.917,19.106l5.248,19.51l0,13.456l-1.077,6.997l-1.211,5.651l-1.076,5.133l-1.211,5.651l-0.538,4.844l-10.899,62.433l-6.243,24.004l-10.495,22.335l-12.379,16.147l-20.317,16.281l-24.893,11.437l-20.048,4.44l-93.095,0.404l-173.026,-0.135l3.768,8.073l9.022,13.125l11.302,9.553l9.015,5.383l8.746,2.691l8.477,2.153l70.91,0l165.661,1.211l6.459,2.152l5.382,5.382l4.171,6.055l1.077,7.535l-1.077,7.67l-3.633,6.324l-5.382,4.844l-6.189,3.095l-13.052,-0.135l-219.985,-0.135l-6.593,0.135l-5.92,-1.076l-18.838,-4.979l-15.877,-7.131l-20.049,-13.994l-14.262,-15.877l-12.917,-23.143l-6.983,-25.796" style="fill:#1d5b35;stroke:#006944;stroke-width:1px;"/></g></g></svg>