<?xml version="1.0" encoding="UTF-8" standalone="no"?><!DOCTYPE svg PUBLIC "-//W3C//DTD SVG 1.1//EN" "http://www.w3.org/Graphics/SVG/1.1/DTD/svg11.dtd"><svg width="100%" height="100%" viewBox="0 0 171 210" version="1.1" xmlns="http://www.w3.org/2000/svg" xmlns:xlink="http://www.w3.org/1999/xlink" xml:space="preserve" xmlns:serif="http://www.serif.com/" style="fill-rule:evenodd;clip-rule:evenodd;stroke-linecap:round;stroke-linejoin:round;stroke-miterlimit:1.5;"><g id="bocal"><path d="M83.139,208.933c31.814,-0.176 45.588,-2.825 55.509,-7.89c1.107,-0.566 0.295,-12.511 0.295,-12.511c0,-0 17.93,-5.577 18.084,-5.764c4.155,-5.038 12.848,-10.813 11.295,-71.463" style="fill:none;stroke:#000;stroke-width:2px;"/><path d="M168.322,111.274c0.335,0.108 1.004,0.323 1.011,-0.014c0.018,-0.82 -0.856,-3.245 -0.904,-4.908c-0.296,-10.35 -0.708,-45.271 -0.871,-57.195c-0.157,-11.488 -31.614,-15.701 -84.09,-16.676" style="fill:none;stroke:#000;stroke-width:2px;"/><path d="M132.135,34.468l0,-5" style="fill:none;stroke:#000;stroke-width:2px;"/><path d="M132.135,29.468l-49,-0" style="fill:none;stroke:#000;stroke-width:2px;"/><path d="M83.196,208.933c-30.581,-0.176 -42.669,-3.833 -52.165,-8.979c-0.542,-0.293 -0.818,-11.695 -0.818,-11.695c0,0 -18.151,-5.467 -18.259,-5.649c-0.021,-0.035 -11.446,-10.647 -9.953,-71.297" style="fill:none;stroke:#000;stroke-width:2px;"/><path d="M2.008,111.304c-0.332,0.102 -0.998,0.306 -1.008,-0.044c-0.023,-0.825 0.824,-3.245 0.869,-4.908c0.285,-10.35 0.681,-45.271 0.838,-57.195c0.151,-11.488 30.306,-15.701 80.749,-16.676" style="fill:none;stroke:#000;stroke-width:2px;"/><path d="M123.831,29.378c0.015,-5.327 0.045,-15.982 -0.19,-20.801c-0.112,-2.277 -0.032,-6.695 -7.055,-7.577" style="fill:none;stroke:#000;stroke-width:2px;"/><path d="M109.496,29.378c-0.015,-5.327 -0.045,-15.982 0.186,-20.801c0.109,-2.277 0.031,-6.695 6.904,-7.577" style="fill:none;stroke:#000;stroke-width:2px;"/><path d="M36.757,34.468l0,-5" style="fill:none;stroke:#000;stroke-width:2px;"/><path d="M36.757,29.468l47.102,-0" style="fill:none;stroke:#000;stroke-width:2px;"/><path d="M1.109,111.27c56.061,0.003 112.122,0.005 168.183,0.008" style="fill:none;stroke:#000;stroke-width:2px;"/><path d="M36.555,29.47c-8.027,0.032 -16.055,0.063 -24.082,0.095" style="fill:none;stroke:#000;stroke-width:2px;"/><path d="M12.473,19.761c22.797,0.049 68.39,0.147 73.568,0.266c4.974,0.115 3.925,3.283 3.967,9.066" style="fill:none;stroke:#000;stroke-width:2px;"/><path d="M12.379,21.821c0.031,2.707 0.063,5.414 0.094,8.122" style="fill:none;stroke:#000;stroke-width:2px;"/><path d="M12.379,19.372c0.031,2.707 0.063,5.414 0.094,8.122" style="fill:none;stroke:#000;stroke-width:2px;"/><path d="M44.394,19.761c-0.092,-6.364 0.574,-8.344 -2.456,-8.348c-1.15,-0.001 -25.404,-0.228 -25.404,-0.228l-0,6.289l20.021,-0l0.095,2.287" style="fill:none;stroke:#000;stroke-width:2px;"/><path d="M16.534,10.384l-0,7.662" style="fill:none;stroke:#000;stroke-width:2px;"/><path d="M109.084,21.756l15.192,0" style="fill:none;stroke:#000;stroke-width:2px;"/><path d="M109.084,12.99l15.192,0" style="fill:none;stroke:#000;stroke-width:2px;"/><path d="M13.475,183.137c39.944,14.561 100.318,16.251 143.437,-0.299" style="fill:none;stroke:#000;stroke-width:2px;"/></g><g id="Texte"><g transform="matrix(29,0,0,29,139.543,82.5467)"></g><text x="32.974px" y="82.547px" style="font-family:'PlayfairDisplay-Bold', 'Playfair Display';font-weight:700;font-size:29px;">HYD<tspan x="96.482px " y="82.547px ">R</tspan>O</text><g transform="matrix(29,0,0,29,160.561,159.768)"></g><text x="9.543px" y="159.768px" style="font-family:'PlayfairDisplay-Bold', 'Playfair Display';font-weight:700;font-size:29px;">SO<tspan x="49.248px 66.821px " y="159.768px 159.768px ">LU</tspan>TI<tspan x="116.849px 139.619px " y="159.768px 159.768px ">ON</tspan></text></g></svg>