<?xml version="1.0" encoding="UTF-8" standalone="no"?><!DOCTYPE svg PUBLIC "-//W3C//DTD SVG 1.1//EN" "http://www.w3.org/Graphics/SVG/1.1/DTD/svg11.dtd"><svg width="100%" height="100%" viewBox="0 0 779 860" version="1.1" xmlns="http://www.w3.org/2000/svg" xmlns:xlink="http://www.w3.org/1999/xlink" xml:space="preserve" xmlns:serif="http://www.serif.com/" style="fill-rule:evenodd;clip-rule:evenodd;stroke-linejoin:round;stroke-miterlimit:2;"><rect id="Plan-de-travail1" serif:id="Plan de travail1" x="0" y="0" width="778.279" height="859.533" style="fill:none;"/><path d="M59.169,298.168l4.603,-9.632l14.368,-26.463l13.367,-22.465l15.722,-22.897l17.367,-22.678l16.833,-18.183l14.134,-13.442l18.896,-16.512l20.771,-14.864l17.913,-10.932l15.955,-9.153l18.738,-8.846l17.156,-7.196l10.537,-3.541l13.692,-5.209l1.893,-0.515l2.379,-13.065l9.002,-15.731l10.446,-9.388l13.768,-8.512l13.345,-4.056l10.808,-2.398l7.215,-1.138l7.426,-1.059l11.173,-1.116l10.652,-0.347l23.781,1.583l24.132,4.702l20.437,8.635l16.638,13.845l9.219,19.949l0.786,8.241l41.687,15.45l49.212,26.462l29.332,20.852l29.193,26.723l25.981,29.789l26.652,37.821l7.305,12.628l10.033,17.306l9.808,19.589l2.545,5.475l3.485,3.262l11.275,14.477l10.356,25.116l2.883,30.515l0,41.649l-0.352,18.071l-0.961,24.005l-3.467,35.88l-4.453,34.937l-8.713,43.827l-12.212,41.859l-16.682,40.058l-21.178,35.817l-24.587,32.507l-26.374,25.311l-20.764,17.373l-0.828,3.306l-7.779,16.242l-14.208,14.935l-2.082,1.17l-4.384,10.945l-19.712,16.403l-20.031,3.334l-18.104,1.023l-22.584,1.236l-28.094,0.624l-52.088,-0l-17.036,-0.294l-16.526,0.3l-16.156,-0.298l-14.774,0.301l-13.907,-0.309l-29.92,0l-24.181,-0.611l-25.668,-0.618l-18.941,-1.207l-27.231,-7.417l-13.189,-24.878l-0.755,-0.502l-10.951,-9.254l-7.913,-13.649l-4.923,-11.237l-0.073,-0.415l-10.697,-7.871l-13.969,-12.161l-10.581,-10.566l-8.7,-9.886l-7.473,-7.463l-8.687,-11.693l-9.962,-13.477l-10.356,-15.692l-6.63,-12.544l-6.906,-13.136l-6.44,-14.379l-5.77,-13.898l-6.012,-17.343l-5.66,-18.288l-5.943,-24.396l-3.891,-20.723l-3.194,-19.78l-2.211,-17.661l-2.507,-21.588l-1.321,-16.831l-0.619,-16.374l-0.924,-17.213l-0.317,-19.946l0,-44.563l2.6,-22.496l7.081,-19.583l11.438,-17.431l6.533,-6.524Zm327.48,-229.295l-7.332,0.239l-9,0.899l-6.3,0.899l-5.7,0.899l-8.1,1.797l-6.9,2.097l-6.3,3.895l-3,2.696l-2.4,4.194l-1.2,6.591l0,23.068l-4.2,1.199l-11.4,3.295l-13.2,3.595l-12.6,4.793l-9.9,3.328l-15,6.291l-16.5,7.789l-14.1,8.089l-16.2,9.886l-18,12.882l-16.8,14.68l-12.6,11.984l-14.7,15.878l-15.6,20.371l-14.4,20.971l-12.3,20.672l-13.5,24.865l-6.3,13.182l-3,3.895l-6.3,6.291l-6.6,10.059l-3.9,10.785l-1.8,15.578l0,41.942l0.3,18.874l0.9,16.777l0.6,15.878l1.2,15.279l2.4,20.671l2.1,16.777l3,18.574l3.6,19.174l5.4,22.169l5.1,16.477l5.4,15.579l5.1,12.283l5.7,12.727l6.3,11.983l5.7,10.785l8.7,13.182l9.3,12.583l6.9,9.287l6.3,6.291l8.7,9.886l8.7,8.688l11.7,10.186l11.4,8.389l11.4,8.688l0.6,5.692l0.9,5.093l2.1,4.793l3.3,5.692l3.9,3.296l5.4,3.595l5.7,2.696l2.7,1.198l0.6,10.785l2.7,5.093l6.6,1.798l14.1,0.899l24.9,0.599l23.7,0.599l29.859,0l13.5,0.3l14.7,-0.3l16.2,0.3l16.5,-0.3l17.4,0.3l51.3,-0l27,-0.6l21.9,-1.198l15.9,-0.899l7.2,-1.198l3.6,-2.996l1.8,-4.494l-0,-8.987l8.4,-3.595l4.8,-2.696l5.7,-5.992l3.3,-6.891l1.8,-7.19l0.9,-6.291l7.8,-4.793l22.2,-18.575l23.1,-22.169l21.3,-28.161l18.6,-31.457l14.756,-35.433l11.1,-38.047l8.1,-40.744l4.2,-32.954l3.3,-34.153l0.9,-22.469l0.336,-17.27l0,-39.375l-2.143,-22.682l-6,-14.552l-6,-7.703l-6.857,-6.42l-5.571,-11.984l-9,-17.975l-9.429,-16.263l-6.419,-11.096l-24.428,-34.666l-23.143,-26.535l-25.714,-23.539l-25.286,-17.975l-44.571,-23.967l-41.572,-15.407l-22.714,-6.42l0.428,-8.987l-0.428,-9.844l-0.857,-8.988l-2.572,-5.563l-5.143,-4.28l-11.142,-4.708l-17.572,-3.424l-19.286,-1.284Z" style="fill:#006944;"/></svg>