<?xml version="1.0" encoding="UTF-8" standalone="no"?><!DOCTYPE svg PUBLIC "-//W3C//DTD SVG 1.1//EN" "http://www.w3.org/Graphics/SVG/1.1/DTD/svg11.dtd"><svg width="100%" height="100%" viewBox="0 0 779 860" version="1.1" xmlns="http://www.w3.org/2000/svg" xmlns:xlink="http://www.w3.org/1999/xlink" xml:space="preserve" xmlns:serif="http://www.serif.com/" style="fill-rule:evenodd;clip-rule:evenodd;stroke-linejoin:round;stroke-miterlimit:2;"><rect id="Plan-de-travail1" serif:id="Plan de travail1" x="0" y="0" width="778.279" height="859.533" style="fill:none;"/><path d="M320.417,108.613l0,-16.437l1.669,-9.166l4.051,-7.078l4.861,-4.37l8.167,-5.049l8.511,-2.586l8.778,-1.948l6.078,-0.959l6.582,-0.938l9.543,-0.953l8.162,-0.266l20.41,1.358l19.211,3.744l13.467,5.689l8.016,6.671l4.234,9.16l1.043,10.942l0.46,10.557c-0,0 -0.072,1.505 -0.072,1.505l15.449,4.367l42.595,15.786l45.731,24.591l26.298,18.694l26.584,24.335l23.852,27.349l24.984,35.454l6.641,11.48l9.58,16.524l9.202,18.378l4.814,10.356l6.015,5.631l7.318,9.397l7.089,17.192l2.328,24.641l0,39.943l-0.34,17.47l-0.916,22.853l-3.341,34.585l-4.263,33.45l-8.254,41.515l-11.378,39l-15.237,36.589l-19.245,32.547l-22.121,29.247l-23.919,22.955l-23.021,19.261l-4.423,2.718l-0.308,2.157l-2.171,8.671l-4.42,9.228l-7.827,8.228l-6.579,3.696l-2.829,1.21l-0,4.319l-3.458,8.633l-7.628,6.348l-10.408,1.732l-16.451,0.93l-22.071,1.207l-27.273,0.606l-51.497,-0l-17.31,-0.298l-16.506,0.299l-16.189,-0.299l-14.718,0.3l-13.602,-0.302l-29.874,0l-23.82,-0.602l-25.092,-0.604l-15.31,-0.976l-11.758,-3.202l-5.756,-10.858l-0.387,-6.954l-3.686,-1.743l-6.482,-4.316l-5.663,-4.785l-4.453,-7.681l-2.806,-6.405l-1.169,-6.614l-0.184,-1.75l-7.902,-6.022l-11.663,-8.581l-12.267,-10.68l-9.17,-9.157l-8.7,-9.887l-6.593,-6.584l-7.347,-9.888l-9.465,-12.807l-9.115,-13.809l-5.932,-11.225l-6.451,-12.271l-5.885,-13.141l-5.268,-12.686l-5.553,-16.02l-5.24,-16.93l-5.536,-22.726l-3.672,-19.561l-3.049,-18.875l-2.128,-16.998l-2.426,-20.901l-1.231,-15.667l-0.605,-16.002l-0.905,-16.886l-0.305,-19.141l0,-42.598l2,-17.307l4.696,-12.985l7.809,-11.902l6.57,-6.56l1.958,-2.543l5.956,-12.461l13.717,-25.265l12.567,-21.12l14.73,-21.453l16.042,-20.948l15.233,-16.454l12.984,-12.348l17.324,-15.138l18.692,-13.378l16.629,-10.148l14.563,-8.354l17.06,-8.054l15.539,-6.517l10.059,-3.381l12.873,-4.897l13.597,-3.703l8.302,-2.4Zm66.232,-39.74l-7.332,0.239l-9,0.899l-6.3,0.899l-5.7,0.899l-8.1,1.797l-6.9,2.097l-6.3,3.895l-3,2.696l-2.4,4.194l-1.2,6.591l0,23.068l-4.2,1.199l-11.4,3.295l-13.2,3.595l-12.6,4.793l-9.9,3.328l-15,6.291l-16.5,7.789l-14.1,8.089l-16.2,9.886l-18,12.882l-16.8,14.68l-12.6,11.984l-14.7,15.878l-15.6,20.371l-14.4,20.971l-12.3,20.672l-13.5,24.865l-6.3,13.182l-3,3.895l-6.3,6.291l-6.6,10.059l-3.9,10.785l-1.8,15.578l0,41.942l0.3,18.874l0.9,16.777l0.6,15.878l1.2,15.279l2.4,20.671l2.1,16.777l3,18.574l3.6,19.174l5.4,22.169l5.1,16.477l5.4,15.579l5.1,12.283l5.7,12.727l6.3,11.983l5.7,10.785l8.7,13.182l9.3,12.583l6.9,9.287l6.3,6.291l8.7,9.886l8.7,8.688l11.7,10.186l11.4,8.389l11.4,8.688l0.6,5.692l0.9,5.093l2.1,4.793l3.3,5.692l3.9,3.296l5.4,3.595l5.7,2.696l2.7,1.198l0.6,10.785l2.7,5.093l6.6,1.798l14.1,0.899l24.9,0.599l23.7,0.599l29.859,0l13.5,0.3l14.7,-0.3l16.2,0.3l16.5,-0.3l17.4,0.3l51.3,-0l27,-0.6l21.9,-1.198l15.9,-0.899l7.2,-1.198l3.6,-2.996l1.8,-4.494l-0,-8.987l8.4,-3.595l4.8,-2.696l5.7,-5.992l3.3,-6.891l1.8,-7.19l0.9,-6.291l7.8,-4.793l22.2,-18.575l23.1,-22.169l21.3,-28.161l18.6,-31.457l14.756,-35.433l11.1,-38.047l8.1,-40.744l4.2,-32.954l3.3,-34.153l0.9,-22.469l0.336,-17.27l0,-39.375l-2.143,-22.682l-6,-14.552l-6,-7.703l-6.857,-6.42l-5.571,-11.984l-9,-17.975l-9.429,-16.263l-6.419,-11.096l-24.428,-34.666l-23.143,-26.535l-25.714,-23.539l-25.286,-17.975l-44.571,-23.967l-41.572,-15.407l-22.714,-6.42l0.428,-8.987l-0.428,-9.844l-0.857,-8.988l-2.572,-5.563l-5.143,-4.28l-11.142,-4.708l-17.572,-3.424l-19.286,-1.284Z" style="fill:#006944;"/></svg>