<?xml version="1.0" encoding="UTF-8" standalone="no"?><!DOCTYPE svg PUBLIC "-//W3C//DTD SVG 1.1//EN" "http://www.w3.org/Graphics/SVG/1.1/DTD/svg11.dtd"><svg width="100%" height="100%" viewBox="0 0 500 552" version="1.1" xmlns="http://www.w3.org/2000/svg" xmlns:xlink="http://www.w3.org/1999/xlink" xml:space="preserve" xmlns:serif="http://www.serif.com/" style="fill-rule:evenodd;clip-rule:evenodd;stroke-linejoin:round;stroke-miterlimit:2;"><rect id="Plan-de-travail1" serif:id="Plan de travail1" x="0" y="0" width="499.537" height="551.69" style="fill:none;"/><g><g><path d="M145.825,497.444l-3.88,-1.835l-3.813,-2.539l-3.07,-2.593l-2.488,-4.292l-1.574,-3.593l-0.664,-3.758l-0.252,-2.388l-6.194,-4.721l-7.402,-5.446l-7.691,-6.696l-5.735,-5.727l-5.584,-6.346l-4.138,-4.132l-4.572,-6.153l-6.022,-8.149l-5.718,-8.661l-3.733,-7.064l-4.092,-7.784l-3.718,-8.301l-3.327,-8.014l-3.515,-10.14l-3.318,-10.722l-3.51,-14.408l-2.334,-12.431l-1.941,-12.018l-1.357,-10.839l-1.549,-13.342l-0.78,-9.931l-0.387,-10.231l-0.579,-10.803l-0.194,-12.2l-0,-27.131l1.219,-10.554l2.759,-7.628l4.625,-7.048l4.129,-4.124l1.592,-2.066l3.933,-8.23l8.734,-16.088l7.981,-13.412l9.349,-13.615l10.154,-13.26l9.606,-10.376l8.211,-7.809l10.951,-9.569l11.775,-8.427l10.536,-6.43l9.199,-5.277l10.77,-5.084l9.801,-4.111l6.405,-2.153l8.175,-3.11l8.6,-2.342l7.298,-2.109l0.372,-0.107l0,-12.674l0.921,-5.057l2.07,-3.617l2.524,-2.268l4.642,-2.87l4.946,-1.504l5.416,-1.201l3.781,-0.596l4.134,-0.59l5.95,-0.595l4.973,-0.161l12.739,0.847l11.804,2.301l7.898,3.337l4.224,3.514l2.183,4.725l0.61,6.396l0.286,6.547l-0.162,3.367l12.248,3.462l27.011,10.011l28.981,15.583l16.554,11.768l16.783,15.364l15.083,17.292l15.857,22.504l4.191,7.245l6.101,10.522l5.841,11.667l3.333,7.17l4.131,3.867l4.274,5.487l4.201,10.188l1.435,15.187l-0,25.455l-0.217,11.149l-0.583,14.545l-2.132,22.059l-2.715,21.312l-5.249,26.398l-7.214,24.726l-9.625,23.114l-12.145,20.54l-13.936,18.424l-15.089,14.482l-14.513,12.142l-3.922,2.41l-0.388,2.712l-1.274,5.09l-2.477,5.173l-4.342,4.563l-3.652,2.052l-3.603,1.542l-0,4.27l-1.688,4.213l-3.603,2.998l-5.651,0.941l-10.382,0.586l-14.111,0.772l-17.418,0.388l-32.99,-0l-11.139,-0.192l-10.593,0.192l-10.394,-0.192l-9.441,0.192l-8.698,-0.193l-19.169,-0l-15.251,-0.386l-16.043,-0.386l-9.439,-0.601l-5.891,-1.605l-2.714,-5.119l-0.315,-5.667Z" style="fill:none;stroke:#1d5b35;stroke-width:3.21px;"/></g></g></svg>