<?xml version="1.0" encoding="UTF-8" standalone="no"?><!DOCTYPE svg PUBLIC "-//W3C//DTD SVG 1.1//EN" "http://www.w3.org/Graphics/SVG/1.1/DTD/svg11.dtd"><svg width="100%" height="100%" viewBox="0 0 721 805" version="1.1" xmlns="http://www.w3.org/2000/svg" xmlns:xlink="http://www.w3.org/1999/xlink" xml:space="preserve" xmlns:serif="http://www.serif.com/" style="fill-rule:evenodd;clip-rule:evenodd;stroke-linejoin:round;stroke-miterlimit:2;"><rect id="Plan-de-travail1" serif:id="Plan de travail1" x="0" y="0" width="720.52" height="804.711" style="fill:none;"/><path d="M279.964,64.985l0,-6.469l2.372,-13.029l6.526,-11.405l7.654,-6.879l10.968,-6.78l10.928,-3.321l9.793,-2.174l6.647,-1.048l7.003,-0.999l10.358,-1.034l9.408,-0.307l22.095,1.471l21.671,4.223l16.952,7.162l12.327,10.258l6.727,14.555l1.323,13.873l0.072,1.655l5.45,1.541l44.129,16.355l47.471,25.526l27.815,19.773l27.889,25.529l24.917,28.569l25.817,36.638l6.973,12.054l9.807,16.915l9.504,18.983l3.681,7.916l4.749,4.446l9.297,11.937l8.723,21.154l2.605,27.578l0,40.796l-0.346,17.771l-0.939,23.429l-3.404,35.232l-4.358,34.194l-8.483,42.67l-11.795,40.43l-15.96,38.324l-20.211,34.182l-23.354,30.877l-25.147,24.133l-24.113,20.175l-1.644,6.567l-6.099,12.736l-11.018,11.581l-4.727,2.655l-4.94,12.331l-13.669,11.376l-15.22,2.533l-17.277,0.977l-22.328,1.221l-27.683,0.615l-51.793,-0l-17.173,-0.296l-16.516,0.3l-16.172,-0.299l-14.746,0.3l-13.755,-0.305l-29.897,0l-24,-0.607l-25.38,-0.61l-17.126,-1.092l-19.494,-5.309l-10.341,-19.505l-0.111,-2.008l-4.676,-3.113l-8.307,-7.019l-6.183,-10.665l-3.864,-8.821l-0.79,-4.471l-2.998,-2.285l-12.056,-8.871l-13.118,-11.42l-9.875,-9.862l-8.7,-9.886l-7.034,-7.024l-8.017,-10.791l-9.713,-13.141l-9.736,-14.751l-6.28,-11.884l-6.679,-12.704l-6.163,-13.76l-5.519,-13.292l-5.782,-16.682l-5.45,-17.608l-5.739,-23.562l-3.782,-20.141l-3.122,-19.328l-2.169,-17.33l-2.467,-21.244l-1.276,-16.249l-0.611,-16.187l-0.915,-17.05l-0.311,-19.544l0,-43.58l2.3,-19.902l5.888,-16.284l9.624,-14.666l6.974,-6.965l0.397,-0.515l5.439,-11.38l14.042,-25.865l12.967,-21.792l15.227,-22.175l16.704,-21.813l16.033,-17.319l13.558,-12.894l18.111,-15.825l19.731,-14.122l17.271,-10.539l15.26,-8.754l17.898,-8.45l16.348,-6.856l10.298,-3.461l13.282,-5.053l11.548,-3.145Zm81.232,-28.418l-7.332,0.239l-9,0.899l-6.3,0.899l-5.7,0.899l-8.1,1.797l-6.9,2.097l-6.3,3.895l-3,2.696l-2.4,4.194l-1.2,6.591l0,23.068l-4.2,1.199l-11.4,3.295l-13.2,3.595l-12.6,4.793l-9.9,3.328l-15,6.291l-16.5,7.789l-14.1,8.089l-16.2,9.886l-18,12.883l-16.8,14.679l-12.6,11.984l-14.7,15.878l-15.6,20.372l-14.4,20.971l-12.3,20.671l-13.5,24.866l-6.3,13.181l-3,3.895l-6.3,6.291l-6.6,10.059l-3.9,10.785l-1.8,15.578l0,41.942l0.3,18.874l0.9,16.777l0.6,15.878l1.2,15.279l2.4,20.671l2.1,16.777l3,18.574l3.6,19.174l5.4,22.169l5.1,16.477l5.4,15.579l5.1,12.283l5.7,12.727l6.3,11.983l5.7,10.785l8.7,13.182l9.3,12.583l6.9,9.287l6.3,6.291l8.7,9.887l8.7,8.688l11.7,10.185l11.4,8.389l11.4,8.688l0.6,5.692l0.9,5.093l2.1,4.793l3.3,5.692l3.9,3.296l5.4,3.595l5.7,2.696l2.7,1.198l0.6,10.786l2.7,5.093l6.6,1.797l14.1,0.899l24.9,0.599l23.7,0.599l29.859,0l13.5,0.3l14.7,-0.3l16.2,0.3l16.5,-0.3l17.4,0.3l51.3,-0l27,-0.599l21.9,-1.199l15.9,-0.899l7.2,-1.198l3.6,-2.996l1.8,-4.494l-0,-8.987l8.4,-3.595l4.8,-2.696l5.7,-5.992l3.3,-6.891l1.8,-7.19l0.9,-6.291l7.8,-4.793l22.2,-18.575l23.1,-22.169l21.3,-28.161l18.6,-31.456l14.756,-35.434l11.1,-38.047l8.1,-40.744l4.2,-32.954l3.3,-34.153l0.9,-22.469l0.336,-17.27l0,-39.375l-2.143,-22.682l-6,-14.552l-6,-7.703l-6.857,-6.42l-5.571,-11.983l-9,-17.976l-9.429,-16.263l-6.419,-11.096l-24.428,-34.666l-23.143,-26.535l-25.714,-23.539l-25.286,-17.975l-44.572,-23.967l-41.571,-15.407l-22.714,-6.42l0.428,-8.987l-0.428,-9.844l-0.857,-8.987l-2.572,-5.564l-5.143,-4.28l-11.143,-4.708l-17.571,-3.424l-19.286,-1.284Z" style="fill:#006944;"/></svg>