<?xml version="1.0" encoding="UTF-8" standalone="no"?><!DOCTYPE svg PUBLIC "-//W3C//DTD SVG 1.1//EN" "http://www.w3.org/Graphics/SVG/1.1/DTD/svg11.dtd"><svg width="100%" height="100%" viewBox="0 0 668 760" version="1.1" xmlns="http://www.w3.org/2000/svg" xmlns:xlink="http://www.w3.org/1999/xlink" xml:space="preserve" xmlns:serif="http://www.serif.com/" style="fill-rule:evenodd;clip-rule:evenodd;stroke-linejoin:round;stroke-miterlimit:2;"><rect id="Plan-de-travail1" serif:id="Plan de travail1" x="0" y="0" width="667.656" height="759.679" style="fill:none;"/><clipPath id="_clip1"><rect x="0" y="0" width="667.656" height="759.679"/></clipPath><g clip-path="url(#_clip1)"><path d="M257.553,50.188l0,-9.821l2.138,-11.742l5.701,-9.962l6.723,-6.043l10.034,-6.203l10.122,-3.076l9.455,-2.098l6.457,-1.018l6.863,-0.979l10.086,-1.008l8.993,-0.293l21.533,1.434l20.851,4.063l15.791,6.671l10.89,9.063l5.895,12.756l1.23,12.896l0.224,5.137l8.737,2.47l43.617,16.165l46.892,25.215l27.308,19.413l27.454,25.131l24.562,28.162l25.54,36.244l6.862,11.862l9.731,16.785l9.404,18.781l4.058,8.729l5.172,4.842l8.637,11.09l8.178,19.833l2.513,26.6l-0,40.511l-0.344,17.671l-0.931,23.237l-3.384,35.016l-4.326,33.946l-8.406,42.285l-11.656,39.953l-15.719,37.746l-19.89,33.637l-22.943,30.333l-24.737,23.741l-23.842,19.948l-1.296,0.797l-2.008,8.019l-5.539,11.566l-9.954,10.463l-5.618,3.156l0,0.016l-5.116,12.772l-11.655,9.7l-13.616,2.266l-17.002,0.961l-22.242,1.217l-27.547,0.611l-51.694,0l-17.218,-0.296l-16.513,0.3l-16.178,-0.299l-14.737,0.3l-13.703,-0.304l-29.89,-0l-23.94,-0.606l-25.284,-0.608l-16.52,-1.053l-16.916,-4.607l-8.812,-16.622l-0.19,-3.411l-6.52,-4.341l-7.426,-6.275l-5.606,-9.67l-3.512,-8.015l-1.025,-5.806l-4.585,-3.493l-11.925,-8.775l-12.834,-11.174l-9.64,-9.626l-8.7,-9.887l-6.887,-6.877l-7.794,-10.49l-9.63,-13.03l-9.529,-14.437l-6.164,-11.664l-6.604,-12.56l-6.069,-13.553l-5.436,-13.09l-5.706,-16.461l-5.38,-17.383l-5.671,-23.283l-3.745,-19.948l-3.098,-19.177l-2.155,-17.219l-2.453,-21.13l-1.261,-16.054l-0.61,-16.126l-0.911,-16.995l-0.309,-19.41l0,-43.253l2.2,-19.037l5.49,-15.184l9.019,-13.745l6.84,-6.829l0.917,-1.192l5.611,-11.74l13.934,-25.665l12.834,-21.568l15.061,-21.934l16.483,-21.525l15.767,-17.031l13.367,-12.712l17.848,-15.596l19.385,-13.873l17.057,-10.41l15.027,-8.62l17.619,-8.318l16.078,-6.743l10.219,-3.435l13.146,-5.001l13.993,-3.811l1.005,-0.29Zm76.232,-32.221l-7.332,0.239l-9,0.899l-6.3,0.899l-5.7,0.898l-8.1,1.798l-6.9,2.097l-6.3,3.894l-3,2.697l-2.4,4.194l-1.2,6.591l0,23.068l-4.2,1.198l-11.4,3.296l-13.2,3.595l-12.6,4.793l-9.9,3.327l-15,6.292l-16.5,7.789l-14.1,8.089l-16.2,9.886l-18,12.882l-16.8,14.68l-12.6,11.983l-14.7,15.878l-15.6,20.372l-14.4,20.971l-12.3,20.672l-13.5,24.865l-6.3,13.182l-3,3.895l-6.3,6.291l-6.6,10.058l-3.9,10.785l-1.8,15.579l0,41.942l0.3,18.874l0.9,16.776l0.6,15.879l1.2,15.278l2.4,20.672l2.1,16.777l3,18.574l3.6,19.173l5.4,22.17l5.1,16.477l5.4,15.578l5.1,12.283l5.7,12.728l6.3,11.983l5.7,10.785l8.7,13.182l9.3,12.582l6.9,9.288l6.3,6.291l8.7,9.886l8.7,8.688l11.7,10.186l11.4,8.388l11.4,8.688l0.6,5.693l0.9,5.093l2.1,4.793l3.3,5.692l3.9,3.295l5.4,3.595l5.7,2.697l2.7,1.198l0.6,10.785l2.7,5.093l6.6,1.798l14.1,0.898l24.9,0.6l23.7,0.599l29.858,-0l13.5,0.299l14.7,-0.299l16.2,0.299l16.5,-0.299l17.4,0.299l51.3,0l27,-0.599l21.9,-1.198l15.9,-0.899l7.2,-1.198l3.6,-2.996l1.8,-4.494l0,-8.987l8.4,-3.596l4.8,-2.696l5.7,-5.991l3.3,-6.891l1.8,-7.19l0.9,-6.291l7.8,-4.794l22.2,-18.574l23.1,-22.169l21.3,-28.161l18.6,-31.457l14.756,-35.433l11.1,-38.048l8.1,-40.743l4.2,-32.955l3.3,-34.152l0.9,-22.469l0.337,-17.271l-0,-39.374l-2.143,-22.683l-6,-14.551l-6,-7.704l-6.857,-6.419l-5.571,-11.984l-9,-17.975l-9.429,-16.263l-6.419,-11.096l-24.428,-34.667l-23.143,-26.534l-25.715,-23.539l-25.285,-17.975l-44.572,-23.967l-41.571,-15.408l-22.714,-6.419l0.428,-8.988l-0.428,-9.843l-0.858,-8.988l-2.571,-5.564l-5.143,-4.279l-11.143,-4.708l-17.571,-3.424l-19.286,-1.284Z" style="fill:#006944;"/></g></svg>