<?xml version="1.0" encoding="UTF-8" standalone="no"?><!DOCTYPE svg PUBLIC "-//W3C//DTD SVG 1.1//EN" "http://www.w3.org/Graphics/SVG/1.1/DTD/svg11.dtd"><svg width="100%" height="100%" viewBox="0 0 721 805" version="1.1" xmlns="http://www.w3.org/2000/svg" xmlns:xlink="http://www.w3.org/1999/xlink" xml:space="preserve" xmlns:serif="http://www.serif.com/" style="fill-rule:evenodd;clip-rule:evenodd;stroke-linejoin:round;stroke-miterlimit:2;"><rect id="Plan-de-travail1" serif:id="Plan de travail1" x="0" y="0" width="720.52" height="804.711" style="fill:none;"/><path d="M37.856,268.793l4.919,-10.29l14.259,-26.264l13.234,-22.241l15.557,-22.656l17.145,-22.39l16.567,-17.895l13.942,-13.259l18.635,-16.283l20.423,-14.617l17.7,-10.801l15.723,-9.02l18.458,-8.714l16.886,-7.082l10.458,-3.515l13.555,-5.157l4.699,-1.279l2.789,-15.322l8.177,-14.289l9.515,-8.551l12.835,-7.935l12.539,-3.811l10.47,-2.323l7.026,-1.108l7.285,-1.039l10.901,-1.089l10.237,-0.333l23.219,1.545l23.312,4.543l19.276,8.143l15.2,12.65l8.389,18.15l1.003,10.516l44.303,16.42l48.632,26.15l28.826,20.492l28.759,26.326l25.626,29.382l26.373,37.426l7.195,12.437l9.957,17.176l9.707,19.387l2.924,6.288l3.906,3.657l10.616,13.63l9.812,23.796l2.79,29.536l0,41.365l-0.35,17.97l-0.954,23.813l-3.446,35.664l-4.421,34.69l-8.636,43.441l-12.073,41.383l-16.441,39.479l-20.857,35.273l-24.176,31.963l-25.964,24.918l-21.881,18.308l-1.1,4.393l-7.219,15.073l-13.144,13.817l-2.964,1.665l-4.57,11.407l-17.697,14.727l-18.427,3.067l-17.829,1.008l-22.499,1.231l-27.956,0.621l-51.99,-0l-17.082,-0.294l-16.522,0.3l-16.161,-0.299l-14.765,0.301l-13.857,-0.308l-29.912,0l-24.121,-0.61l-25.572,-0.615l-18.335,-1.169l-24.653,-6.714l-12.767,-24.083l-1.571,-1.046l-10.07,-8.509l-7.336,-12.654l-4.571,-10.431l-0.317,-1.798l-12.144,-8.935l-13.685,-11.915l-10.346,-10.331l-8.7,-9.886l-7.326,-7.317l-8.464,-11.392l-9.879,-13.365l-10.15,-15.379l-6.513,-12.323l-6.83,-12.993l-6.347,-14.172l-5.687,-13.696l-5.935,-17.123l-5.591,-18.061l-5.874,-24.118l-3.855,-20.529l-3.17,-19.63l-2.197,-17.55l-2.493,-21.474l-1.307,-16.636l-0.616,-16.312l-0.921,-17.159l-0.315,-19.812l0,-44.235l2.5,-21.631l6.683,-18.483l10.833,-16.51l6.776,-6.767Zm323.34,-232.226l-7.332,0.239l-9,0.899l-6.3,0.899l-5.7,0.899l-8.1,1.797l-6.9,2.097l-6.3,3.895l-3,2.696l-2.4,4.194l-1.2,6.591l0,23.068l-4.2,1.199l-11.4,3.295l-13.2,3.595l-12.6,4.793l-9.9,3.328l-15,6.291l-16.5,7.789l-14.1,8.089l-16.2,9.886l-18,12.883l-16.8,14.679l-12.6,11.984l-14.7,15.878l-15.6,20.372l-14.4,20.971l-12.3,20.671l-13.5,24.866l-6.3,13.181l-3,3.895l-6.3,6.291l-6.6,10.059l-3.9,10.785l-1.8,15.578l0,41.942l0.3,18.874l0.9,16.777l0.6,15.878l1.2,15.279l2.4,20.671l2.1,16.777l3,18.574l3.6,19.174l5.4,22.169l5.1,16.477l5.4,15.579l5.1,12.283l5.7,12.727l6.3,11.983l5.7,10.785l8.7,13.182l9.3,12.583l6.9,9.287l6.3,6.291l8.7,9.887l8.7,8.688l11.7,10.185l11.4,8.389l11.4,8.688l0.6,5.692l0.9,5.093l2.1,4.793l3.3,5.692l3.9,3.296l5.4,3.595l5.7,2.696l2.7,1.198l0.6,10.786l2.7,5.093l6.6,1.797l14.1,0.899l24.9,0.599l23.7,0.599l29.859,0l13.5,0.3l14.7,-0.3l16.2,0.3l16.5,-0.3l17.4,0.3l51.3,-0l27,-0.599l21.9,-1.199l15.9,-0.899l7.2,-1.198l3.6,-2.996l1.8,-4.494l-0,-8.987l8.4,-3.595l4.8,-2.696l5.7,-5.992l3.3,-6.891l1.8,-7.19l0.9,-6.291l7.8,-4.793l22.2,-18.575l23.1,-22.169l21.3,-28.161l18.6,-31.456l14.756,-35.434l11.1,-38.047l8.1,-40.744l4.2,-32.954l3.3,-34.153l0.9,-22.469l0.336,-17.27l0,-39.375l-2.143,-22.682l-6,-14.552l-6,-7.703l-6.857,-6.42l-5.571,-11.983l-9,-17.976l-9.429,-16.263l-6.419,-11.096l-24.428,-34.666l-23.143,-26.535l-25.714,-23.539l-25.286,-17.975l-44.572,-23.967l-41.571,-15.407l-22.714,-6.42l0.428,-8.987l-0.428,-9.844l-0.857,-8.987l-2.572,-5.564l-5.143,-4.28l-11.143,-4.708l-17.571,-3.424l-19.286,-1.284Z" style="fill:#006944;"/></svg>