<?xml version="1.0" encoding="UTF-8" standalone="no"?><!DOCTYPE svg PUBLIC "-//W3C//DTD SVG 1.1//EN" "http://www.w3.org/Graphics/SVG/1.1/DTD/svg11.dtd"><svg width="100%" height="100%" viewBox="0 0 721 805" version="1.1" xmlns="http://www.w3.org/2000/svg" xmlns:xlink="http://www.w3.org/1999/xlink" xml:space="preserve" xmlns:serif="http://www.serif.com/" style="fill-rule:evenodd;clip-rule:evenodd;stroke-linejoin:round;stroke-miterlimit:2;"><rect id="Plan-de-travail1" serif:id="Plan de travail1" x="0" y="0" width="720.52" height="804.711" style="fill:none;"/><path d="M41.997,271.724l5.233,-10.949l14.151,-26.064l13.1,-22.017l15.392,-22.415l16.925,-22.102l16.3,-17.606l13.75,-13.077l18.373,-16.054l20.077,-14.369l17.485,-10.671l15.492,-8.887l18.178,-8.581l16.617,-6.97l10.378,-3.488l13.419,-5.104l8.097,-2.206l0,-3.1l2.607,-14.316l7.351,-12.847l8.585,-7.716l11.901,-7.357l11.733,-3.566l10.132,-2.248l6.836,-1.078l7.145,-1.02l10.629,-1.061l9.822,-0.32l22.658,1.508l22.491,4.383l18.114,7.653l13.764,11.454l7.557,16.352l1.24,12.996l2.26,0.639l44.64,16.545l48.052,25.838l28.32,20.132l28.324,25.928l25.272,28.975l26.095,37.032l7.084,12.246l9.882,17.045l9.606,19.185l3.302,7.102l4.328,4.052l9.956,12.783l9.267,22.475l2.698,28.558l0,41.08l-0.348,17.871l-0.946,23.621l-3.425,35.448l-4.39,34.441l-8.56,43.056l-11.934,40.906l-16.2,38.902l-20.534,34.727l-23.765,31.42l-25.555,24.526l-22.997,19.241l-1.372,5.481l-6.659,13.904l-12.081,12.699l-3.846,2.16l-4.755,11.869l-15.683,13.052l-16.823,2.8l-17.553,0.992l-22.414,1.226l-27.82,0.618l-51.891,0l-17.127,-0.295l-16.519,0.3l-16.167,-0.299l-14.756,0.301l-13.805,-0.307l-29.905,0l-24.061,-0.608l-25.475,-0.613l-17.731,-1.13l-22.074,-6.012l-11.868,-22.387l-0.034,-0.606l-2.83,-1.884l-9.189,-7.765l-6.76,-11.659l-4.217,-9.626l-0.554,-3.137l-1.411,-1.075l-12.188,-8.968l-13.401,-11.668l-10.11,-10.096l-8.7,-9.886l-7.181,-7.17l-8.24,-11.092l-9.796,-13.253l-9.943,-15.065l-6.397,-12.104l-6.754,-12.848l-6.255,-13.966l-5.603,-13.494l-5.859,-16.902l-5.52,-17.835l-5.807,-23.84l-3.818,-20.335l-3.146,-19.479l-2.183,-17.44l-2.48,-21.359l-1.291,-16.442l-0.614,-16.25l-0.918,-17.105l-0.313,-19.677l0,-43.908l2.4,-20.766l6.286,-17.384l10.228,-15.588l7.019,-7.01Zm319.199,-235.157l-7.332,0.239l-9,0.899l-6.3,0.899l-5.7,0.899l-8.1,1.797l-6.9,2.097l-6.3,3.895l-3,2.696l-2.4,4.194l-1.2,6.591l-0,23.068l-4.2,1.199l-11.4,3.295l-13.2,3.595l-12.6,4.793l-9.9,3.328l-15,6.291l-16.5,7.789l-14.1,8.089l-16.2,9.886l-18,12.883l-16.8,14.679l-12.6,11.984l-14.7,15.878l-15.6,20.372l-14.4,20.971l-12.3,20.671l-13.5,24.866l-6.3,13.181l-3,3.895l-6.3,6.291l-6.6,10.059l-3.9,10.785l-1.8,15.578l-0,41.942l0.3,18.874l0.9,16.777l0.6,15.878l1.2,15.279l2.4,20.671l2.1,16.777l3,18.574l3.6,19.174l5.4,22.169l5.1,16.477l5.4,15.579l5.1,12.283l5.7,12.727l6.3,11.983l5.7,10.785l8.7,13.182l9.3,12.583l6.9,9.287l6.3,6.291l8.7,9.887l8.7,8.688l11.7,10.185l11.4,8.389l11.4,8.688l0.6,5.692l0.9,5.093l2.1,4.793l3.3,5.692l3.9,3.296l5.4,3.595l5.7,2.696l2.7,1.198l0.6,10.786l2.7,5.093l6.6,1.797l14.1,0.899l24.9,0.599l23.7,0.599l29.859,0l13.5,0.3l14.7,-0.3l16.2,0.3l16.5,-0.3l17.4,0.3l51.3,0l27,-0.599l21.9,-1.199l15.9,-0.899l7.2,-1.198l3.6,-2.996l1.8,-4.494l-0,-8.987l8.4,-3.595l4.8,-2.696l5.7,-5.992l3.3,-6.891l1.8,-7.19l0.9,-6.291l7.8,-4.793l22.2,-18.575l23.1,-22.169l21.3,-28.161l18.6,-31.456l14.756,-35.434l11.1,-38.047l8.1,-40.744l4.2,-32.954l3.3,-34.153l0.9,-22.469l0.336,-17.27l-0,-39.375l-2.143,-22.682l-6,-14.552l-6,-7.703l-6.857,-6.42l-5.571,-11.983l-9,-17.976l-9.429,-16.263l-6.419,-11.096l-24.428,-34.666l-23.143,-26.535l-25.714,-23.539l-25.286,-17.975l-44.572,-23.967l-41.571,-15.407l-22.714,-6.42l0.428,-8.987l-0.428,-9.844l-0.857,-8.987l-2.572,-5.564l-5.143,-4.28l-11.143,-4.708l-17.571,-3.424l-19.286,-1.284Z"/></svg>