<?xml version="1.0" encoding="UTF-8" standalone="no"?><!DOCTYPE svg PUBLIC "-//W3C//DTD SVG 1.1//EN" "http://www.w3.org/Graphics/SVG/1.1/DTD/svg11.dtd"><svg width="100%" height="100%" viewBox="0 0 390 518" version="1.1" xmlns="http://www.w3.org/2000/svg" xmlns:xlink="http://www.w3.org/1999/xlink" xml:space="preserve" xmlns:serif="http://www.serif.com/" style="fill-rule:evenodd;clip-rule:evenodd;stroke-linecap:round;stroke-linejoin:round;stroke-miterlimit:1.5;"><g><path d="M195.758,2.508c-4.875,-0.089 -59.691,3.429 -95.949,43.817c-16.913,18.839 -33.491,45.701 -32.355,83.961c3.804,128.219 124.484,127.773 124.484,127.773" style="fill:none;stroke:#006944;stroke-width:5px;"/><path d="M323.536,132.896c-0,-36.231 -16.028,-65.777 -31.472,-84.882c-31.179,-38.573 -77.195,-45.793 -96.302,-45.506" style="fill:none;stroke:#006944;stroke-width:5px;"/><path d="M191.595,258.065c27.271,-0.39 68.6,-7.105 98.989,-41.618c23.417,-26.596 33.497,-57.237 32.952,-83.532" style="fill:none;stroke:#006944;stroke-width:5px;"/><path d="M387.146,403.331c-0,0 0.022,3.023 -0.004,-0.982c-0.174,-26.81 -24.508,-97.998 -97.259,-99.588c-14.209,-0.311 -189.828,-1.578 -189.828,-1.578" style="fill:none;stroke:#006944;stroke-width:5px;"/><path d="M2.776,514.749l383.861,0l0.526,-112.004" style="fill:none;stroke:#006944;stroke-width:5px;"/><path d="M100.055,301.183c-56.264,0.526 -96.754,47.326 -97.279,100.435c-0.62,62.572 -0,112.53 -0,112.53" style="fill:none;stroke:#006944;stroke-width:5px;"/></g></svg>