<?xml version="1.0" encoding="UTF-8" standalone="no"?><!DOCTYPE svg PUBLIC "-//W3C//DTD SVG 1.1//EN" "http://www.w3.org/Graphics/SVG/1.1/DTD/svg11.dtd"><svg width="100%" height="100%" viewBox="0 0 386 514" version="1.1" xmlns="http://www.w3.org/2000/svg" xmlns:xlink="http://www.w3.org/1999/xlink" xml:space="preserve" xmlns:serif="http://www.serif.com/" style="fill-rule:evenodd;clip-rule:evenodd;stroke-linecap:round;stroke-linejoin:round;stroke-miterlimit:1.5;"><g><g><path d="M193.758,0.508c-4.875,-0.089 -59.691,3.429 -95.949,43.817c-16.913,18.839 -33.491,45.701 -32.355,83.961c3.804,128.219 124.484,127.773 124.484,127.773" style="fill:#006944;stroke:#006944;stroke-width:1px;"/><path d="M189.595,256.065c27.271,-0.39 68.6,-7.105 98.989,-41.618c23.417,-26.596 33.497,-57.237 32.952,-83.532c-0.393,-18.977 -0,11.628 -0,0c-0,-36.23 -16.028,-65.796 -31.472,-84.901c-31.179,-38.573 -77.195,-45.793 -96.302,-45.506" style="fill:#006944;stroke:#006944;stroke-width:1px;"/></g><g><path d="M98.055,299.183l287.108,101.562c-0,0 0.005,3.609 -0.021,-0.396c-0.174,-26.81 -24.508,-97.998 -97.259,-99.588c-14.209,-0.311 -131.288,-1.155 -189.828,-1.578Z" style="fill:#006944;stroke:#006944;stroke-width:1px;"/><path d="M0.776,512.749l383.861,0l0.526,-112.004l-287.126,-101.129l-97.261,213.133Z" style="fill:#006944;stroke:#006944;stroke-width:1px;"/><path d="M0.776,512.749c-0,0 97.428,-213.568 97.279,-213.566c-56.032,0.769 -96.755,47.466 -97.279,100.435c-0.62,62.572 -0,113.131 -0,113.131Z" style="fill:#006944;stroke:#006944;stroke-width:1px;"/></g></g></svg>